<?xml version="1.0" encoding="UTF-8"?>
<svg width="1600" height="900" viewBox="0 0 1600 900" xmlns="http://www.w3.org/2000/svg" role="img" aria-label="WE Work Edit background">
  <defs>
    <linearGradient id="g1" x1="0" y1="0" x2="1" y2="1">
      <stop offset="0" stop-color="#8B6635"/>
      <stop offset="0.45" stop-color="#C99557"/>
      <stop offset="1" stop-color="#E5B778"/>
    </linearGradient>
    <radialGradient id="g2" cx="65%" cy="55%" r="65%">
      <stop offset="0" stop-color="#EFD2A0" stop-opacity="0.95"/>
      <stop offset="0.55" stop-color="#C99557" stop-opacity="0.55"/>
      <stop offset="1" stop-color="#1B191B" stop-opacity="0.06"/>
    </radialGradient>
    <radialGradient id="g3" cx="30%" cy="20%" r="70%">
      <stop offset="0" stop-color="#1B191B" stop-opacity="0.18"/>
      <stop offset="0.55" stop-color="#8B6635" stop-opacity="0.20"/>
      <stop offset="1" stop-color="#FFFFFF" stop-opacity="0"/>
    </radialGradient>
    <filter id="softBlur" x="-20%" y="-20%" width="140%" height="140%">
      <feGaussianBlur stdDeviation="20"/>
    </filter>
    <filter id="shadow" x="-20%" y="-20%" width="140%" height="140%">
      <feDropShadow dx="0" dy="18" stdDeviation="18" flood-color="#000000" flood-opacity="0.20"/>
    </filter>
  </defs>

  <!-- Base -->
  <rect width="1600" height="900" fill="url(#g2)"/>

  <!-- Flow ribbons -->
  <path d="M-80,760 C180,560 520,520 780,620 C1040,720 1220,690 1680,480 L1680,980 L-80,980 Z"
        fill="url(#g1)" opacity="0.35" filter="url(#softBlur)"/>
  <path d="M-120,660 C220,430 540,420 820,540 C1100,660 1320,620 1720,370"
        fill="none" stroke="#FFFFFF" stroke-opacity="0.22" stroke-width="10" filter="url(#softBlur)"/>
  <path d="M-160,640 C200,390 560,380 860,520 C1160,660 1400,600 1760,320"
        fill="none" stroke="#1B191B" stroke-opacity="0.10" stroke-width="26" filter="url(#softBlur)"/>

  <path d="M-60,260 C260,120 520,80 840,170 C1160,260 1320,260 1680,120 L1680,0 L-60,0 Z"
        fill="url(#g1)" opacity="0.28" filter="url(#softBlur)"/>

  <!-- Soft highlights -->
  <ellipse cx="1120" cy="430" rx="520" ry="320" fill="#FFFFFF" opacity="0.12" filter="url(#softBlur)"/>
  <ellipse cx="520" cy="130" rx="420" ry="260" fill="#FFFFFF" opacity="0.08" filter="url(#softBlur)"/>

  <!-- Corner vignette -->
  <rect width="1600" height="900" fill="url(#g3)"/>
</svg>
